# xmcd
#
# Track frame offsets:
#	150
#	12795
#	25775
#	39310
#	58210
#	69535
#	81613
#	98883
#	114500
#	128715
#	146965
#	160220
#
# Disc length: 2386 seconds
#
# Revision: 0
# Processed by: cddbd v1.5.1PL0 Copyright (c) Steve Scherf et al.
# Submitted via: dBpowerAMP V4.0
#
DISCID=a409500c
DTITLE=Gene Watson - Greatest Hits
DYEAR=1996
DGENRE=Country
TTITLE0=Got No Reason Now For Goin' Home
TTITLE1=I Don't Need A Thing At All
TTITLE2=One Sided Conversation
TTITLE3=Farewell Party
TTITLE4=Pick The Wildwood Flower
TTITLE5=Should I Come Home
TTITLE6=Nothing Sure Looked Good On You
TTITLE7=Love In The Hot Afternoon
TTITLE8=Where Love Begins
TTITLE9=Paper Rosie
TTITLE10=You Could Know As Much About A Stranger
TTITLE11=The Old Man And His Horn
EXTD=
EXTT0=
EXTT1=
EXTT2=
EXTT3=
EXTT4=
EXTT5=
EXTT6=
EXTT7=
EXTT8=
EXTT9=
EXTT10=
EXTT11=
PLAYORDER=
